<?xml version="1.0" standalone="no"?>
<!DOCTYPE svg PUBLIC "-//W3C//DTD SVG 20010904//EN"
 "http://www.w3.org/TR/2001/REC-SVG-20010904/DTD/svg10.dtd">
<svg xmlns="http://www.w3.org/2000/svg" version="1.0" width="700.000000pt" height="700.000000pt" viewBox="0 0 700.000000 700.000000" preserveAspectRatio="xMidYMid meet">
<metadata>
Created by potrace 1.11, written by Peter Selinger 2001-2013
</metadata>
<g transform="translate(0.000000,700.000000) scale(0.100000,-0.100000)" fill="#000000" stroke="none">
<path d="M3278 6995 c-1 -1 -41 -5 -88 -9 -87 -7 -105 -9 -225 -27 -116 -18 -123 -19 -192 -35 -184 -42 -248 -59 -369 -99 -264 -88 -538 -216 -759 -356 -696 -437 -1220 -1109 -1475 -1889 -28 -87 -75 -256 -85 -311 -3 -13 -11 -58 -20 -99 -29 -147 -36 -200 -52 -370 -15 -165 -8 -592 12 -711 2 -13 6 -46 9 -74 9 -78 22 -152 51 -285 21 -96 91 -339 114 -395 5 -11 30 -75 55 -142 54 -140 181 -394 249 -501 26 -40 47 -76 47 -81 0 -5 3 -11 8 -13 4 -2 33 -41 64 -88 52 -78 214 -285 263 -336 198 -208 293 -297 445 -419 92 -74 370 -265 386 -265 4 0 15 -6 23 -14 29 -25 304 -161 431 -213 269 -110 577 -194 835 -228 22 -2 56 -7 75 -10 186 -26 698 -27 838 0 16 3 104 15 147 20 321 41 827 219 1154 407 46 26 86 48 88 48 2 0 9 5 16 10 7 6 62 43 122 83 253 168 492 376 678 592 33 39 63 72 67 75 17 13 181 236 245 335 219 336 406 779 481 1140 16 79 54 301 59 350 4 33 9 71 11 85 9 46 11 524 4 605 -12 128 -21 202 -25 227 -3 13 -8 43 -11 68 -9 67 -70 335 -94 412 -11 37 -21 70 -21 73 0 2 -16 49 -35 102 -222 616 -576 1124 -1074 1541 -68 57 -307 232 -351 257 -10 5 -49 29 -86 51 -86 52 -297 162 -383 199 -36 15 -80 34 -98 42 -122 53 -422 144 -587 178 -44 9 -89 19 -100 21 -11 2 -38 6 -60 9 -22 3 -51 7 -65 10 -13 2 -52 7 -86 11 -33 3 -74 8 -90 10 -32 5 -540 14 -546 9z m-686 -1961 c31 -49 81 -126 110 -172 29 -45 64 -100 78 -122 14 -22 54 -85 90 -140 36 -56 70 -109 75 -118 6 -9 30 -48 55 -87 240 -369 610 -952 610 -960 0 -5 -87 -144 -193 -308 -105 -163 -210 -326 -232 -360 -22 -35 -72 -113 -111 -173 -39 -60 -100 -154 -136 -209 -35 -55 -142 -220 -237 -368 l-173 -267 -52 37 c-45 33 -182 131 -413 295 l-72 51 64 101 c34 55 100 160 146 233 46 73 160 253 253 400 93 147 191 301 218 341 26 41 48 75 48 77 0 2 20 34 45 72 25 37 45 72 45 76 0 7 -185 304 -350 562 -232 363 -471 748 -468 755 2 5 98 75 213 156 116 81 233 164 260 185 28 21 54 37 60 35 5 -1 36 -43 67 -92z m1593 63 c125 -199 251 -393 257 -395 5 -2 8 -7 8 -12 0 -7 258 -413 435 -685 180 -277 358 -561 358 -570 0 -6 -51 -91 -114 -188 -120 -187 -292 -452 -309 -477 -6 -8 -152 -235 -326 -505 -174 -269 -320 -495 -325 -502 -7 -8 -87 44 -278 180 l-268 191 71 111 c74 116 369 582 495 782 71 113 128 202 218 342 l41 64 -25 41 c-14 23 -40 64 -58 91 -98 151 -737 1168 -740 1178 -2 7 21 30 53 51 58 40 288 202 410 289 36 26 69 47 72 47 3 -1 14 -15 25 -33z"/>
</g>
</svg>