<?xml version="1.0" standalone="no"?>
<!DOCTYPE svg PUBLIC "-//W3C//DTD SVG 20010904//EN"
 "http://www.w3.org/TR/2001/REC-SVG-20010904/DTD/svg10.dtd">
<svg version="1.0" xmlns="http://www.w3.org/2000/svg"
 width="700.000000pt" height="700.000000pt" viewBox="0 0 700.000000 700.000000"
 preserveAspectRatio="xMidYMid meet">
<metadata>
Created by potrace 1.14, written by Peter Selinger 2001-2017
</metadata>
<g transform="translate(0.000000,700.000000) scale(0.100000,-0.100000)"
fill="#000000" stroke="none">
<path d="M410 6485 c0 -124 3 -167 13 -170 6 -2 64 -6 127 -9 284 -15 351 -24
412 -53 172 -84 245 -218 275 -508 10 -101 11 -4363 0 -4465 -10 -101 -15
-134 -33 -205 -69 -277 -270 -386 -759 -410 -33 -2 -68 -3 -77 -4 -16 -1 -18
-15 -18 -156 l0 -155 1444 0 1443 0 1 155 2 155 -53 1 c-526 5 -770 60 -906
204 -84 89 -123 183 -147 354 -3 25 -8 57 -12 71 -3 14 -7 476 -9 1026 l-4
1002 213 -3 c198 -2 218 -4 288 -27 188 -64 288 -151 546 -483 13 -16 57 -73
97 -125 41 -52 199 -255 351 -450 309 -396 300 -384 387 -496 35 -45 74 -94
86 -110 12 -16 149 -191 304 -389 154 -198 300 -385 323 -416 24 -30 50 -64
59 -75 9 -10 82 -103 162 -206 l146 -188 789 0 790 0 0 155 c0 152 0 155 -22
159 -13 3 -61 13 -108 21 -293 56 -538 150 -705 270 -80 57 -233 205 -311 300
-80 97 -406 490 -427 515 -17 20 -224 269 -325 392 -9 11 -22 25 -27 32 -6 6
-30 36 -55 66 -25 30 -47 57 -50 60 -3 3 -25 30 -50 60 -25 30 -47 57 -50 60
-3 3 -46 55 -95 115 -49 61 -92 112 -95 115 -4 3 -82 97 -176 210 -93 113
-222 269 -288 347 -65 78 -118 145 -117 149 0 4 67 22 149 40 463 99 807 270
1068 529 244 242 378 536 420 920 5 46 5 255 -1 305 -36 356 -169 653 -389
874 -282 283 -654 457 -1166 545 -331 57 -386 59 -1967 60 l-1453 1 0 -165z
m2755 -249 c250 -12 455 -60 630 -147 347 -174 547 -536 549 -994 0 -94 -11
-263 -19 -275 -2 -3 -6 -22 -9 -42 -16 -102 -74 -274 -127 -381 -171 -338
-440 -513 -924 -601 -16 -3 -58 -8 -94 -12 -36 -3 -68 -7 -71 -9 -21 -13 -940
-28 -977 -17 -10 3 -13 253 -13 1206 0 1123 1 1203 18 1236 12 25 25 36 46 40
40 7 840 4 991 -4z"/>
</g>
</svg>
