<?xml version="1.0" encoding="UTF-8" standalone="no"?>
<!DOCTYPE svg PUBLIC "-//W3C//DTD SVG 1.1//EN" "http://www.w3.org/Graphics/SVG/1.1/DTD/svg11.dtd">
<svg width="100%" height="100%" viewBox="0 0 500 500" version="1.1" xmlns="http://www.w3.org/2000/svg" xmlns:xlink="http://www.w3.org/1999/xlink" xml:space="preserve" xmlns:serif="http://www.serif.com/" style="fill-rule:evenodd;clip-rule:evenodd;stroke-linejoin:round;stroke-miterlimit:2;">
    <g transform="matrix(2.20333,0,0,2.20333,-244.858,-300.545)">
        <g transform="matrix(265.242,0,0,265.242,110.541,351.987)">
            <path d="M0.658,-0.577C0.658,-0.524 0.642,-0.479 0.61,-0.444C0.578,-0.409 0.527,-0.385 0.457,-0.373L0.678,-0.107C0.696,-0.085 0.716,-0.069 0.738,-0.06C0.759,-0.05 0.785,-0.043 0.815,-0.038L0.815,0L0.622,0L0.377,-0.314C0.368,-0.325 0.36,-0.334 0.353,-0.341C0.345,-0.348 0.337,-0.353 0.329,-0.357C0.32,-0.36 0.311,-0.363 0.3,-0.364C0.289,-0.365 0.275,-0.365 0.26,-0.365L0.26,-0.157C0.26,-0.132 0.262,-0.112 0.265,-0.097C0.268,-0.081 0.274,-0.069 0.284,-0.06C0.293,-0.051 0.307,-0.046 0.326,-0.043C0.344,-0.04 0.368,-0.038 0.398,-0.038L0.398,0L0.045,0L0.045,-0.038C0.068,-0.039 0.087,-0.041 0.102,-0.044C0.116,-0.047 0.127,-0.053 0.135,-0.061C0.143,-0.069 0.148,-0.08 0.151,-0.095C0.154,-0.11 0.155,-0.129 0.155,-0.152L0.155,-0.618C0.155,-0.641 0.154,-0.66 0.152,-0.675C0.149,-0.689 0.145,-0.7 0.138,-0.709C0.131,-0.717 0.12,-0.723 0.107,-0.726C0.094,-0.729 0.076,-0.731 0.055,-0.732L0.055,-0.77L0.369,-0.77C0.461,-0.77 0.532,-0.753 0.583,-0.719C0.633,-0.685 0.658,-0.638 0.658,-0.577ZM0.26,-0.415L0.331,-0.415C0.398,-0.415 0.457,-0.427 0.489,-0.452C0.522,-0.476 0.538,-0.516 0.538,-0.572C0.538,-0.626 0.525,-0.665 0.499,-0.688C0.474,-0.711 0.424,-0.723 0.369,-0.723L0.277,-0.723C0.266,-0.723 0.26,-0.717 0.26,-0.706L0.26,-0.415Z" style="fill:rgb(0,158,255);fill-rule:nonzero;"/>
        </g>
        <g transform="matrix(1,0,0,1,-148.351,74.6998)">
            <path d="M332.295,85.638C302.818,85.643 302.96,85.098 273.412,83.251L273.412,73.172L356.698,73.172C379.194,73.172 406.048,76.388 422.088,94.126C438.002,111.725 437.195,142.58 420.621,159.641C409.705,170.876 394.76,176.087 380.039,178.473C365.195,180.878 354.116,180.623 328.002,180.595L328.002,167.333L346.618,167.333C361.774,167.333 381.852,165.643 391.635,152.023C402.558,136.816 403.72,108.181 388.659,94.922C379.961,87.264 367.842,85.638 356.698,85.638L332.295,85.638Z" style="fill:rgb(88,0,255);fill-rule:nonzero;"/>
        </g>
    </g>
</svg>
