<?xml version="1.0" encoding="UTF-8"?>
<svg xmlns="http://www.w3.org/2000/svg" width="197" height="31" viewBox="0 0 197 31" shape-rendering="geometricPrecision" aria-hidden="true"><path fill="#0050b8" fill-rule="evenodd" d="M15.5 0C24.06 0 31 6.94 31 15.5 31 24.06 24.06 31 15.5 31 6.94 31 0 24.06 0 15.5 0 6.94 6.94 0 15.5 0zm35.329 5.615c.195 0 .244.097.244.51v13.263c0 2.356.44 2.672.44 3.158 0 .097-.098.17-.22.219l-1.858.753c-.098.024-.22.097-.318.097-.22 0-.587-.85-.709-1.458-.391.365-1.467 1.458-3.227 1.458-2.787 0-4.181-2.235-4.181-5.927 0-4.591 1.663-6.9 4.694-6.9 1.32 0 1.883.462 2.274.73v-4.98c0-.365.171-.365.464-.437l2.054-.413c.073 0 .294-.073.343-.073zm121.807 13.384a2.314 2.314 0 012.323 2.308 2.314 2.314 0 01-2.323 2.308c-1.247 0-2.323-1.02-2.323-2.308 0-1.287 1.076-2.308 2.323-2.308zm-8.609-8.21c4.157 0 4.89 3.692 4.89 6.631 0 .462-.098.608-.562.608h-6.577c0 1.36.39 3.036 2.69 3.036 1.76 0 2.762-.802 3.104-.802.123 0 .22.098.27.195l.61 1.457c.05.073.074.17.074.268 0 .631-2.445 1.433-4.377 1.433-3.227 0-5.476-1.822-5.476-6.292 0-3.862 2.078-6.534 5.354-6.534zm29.806-5.174c.196 0 .245.097.245.51v13.239c0 .777 0 1.457.684 1.457.49 0 .807-.218.954-.218.098 0 .17.048.195.145l.49 1.992c.024.122.048.122.048.195 0 .34-1.296.68-2.47.68-2.86 0-3-2.22-3.006-4.36V6.538c0-.365.17-.365.464-.437l2.054-.413c.073 0 .293-.073.342-.073zM59.02 10.789c4.157 0 4.89 3.692 4.89 6.631 0 .462-.098.608-.562.608H56.77c0 1.36.39 3.036 2.69 3.036 1.76 0 2.762-.802 3.104-.802.123 0 .22.098.269.195l.611 1.457c.05.073.074.17.074.268 0 .631-2.445 1.433-4.377 1.433-3.227 0-5.476-1.822-5.476-6.292 0-3.862 2.078-6.534 5.354-6.534zm25.867 0c3.057 0 4.206 1.384 4.206 3.91v4.689c0 2.356.635 2.672.635 3.158 0 .097-.098.17-.22.219l-1.858.753c-.098.024-.22.097-.318.097-.22 0-.586-.85-.709-1.458-.489.486-1.345 1.458-3.178 1.458-2.25 0-3.668-1.458-3.668-3.741 0-3.941 4.101-4.099 6.138-4.105h.244v-.753c0-1.094-.196-1.798-1.736-1.798-1.37 0-2.714.729-3.032.729-.122 0-.22-.146-.245-.243l-.488-1.482a.643.643 0 01-.074-.291c0-.56 2.42-1.142 4.303-1.142zm68.995-3.401c.22 0 .244.122.244.413v3.4h2.787c.22 0 .416 0 .416.268 0 .049 0 .097-.024.194l-.318 1.434c-.074.34-.147.364-.44.364h-2.42v5.878c0 .778 0 1.482.83 1.482.979 0 1.59-.461 1.932-.461.098 0 .171.048.196.145l.489 1.992c.024.122.048.122.048.195 0 .461-1.784.923-3.447.923-2.85 0-3.125-2.003-3.151-4.038l-.003-.33V13.46h-1.736c-.293 0-.342-.073-.342-.34v-1.58c0-.266.049-.34.342-.34h1.736v-3.06c0-.316.05-.389.391-.437l2.152-.292c.073 0 .17-.024.318-.024zm-18.63-1.239c2.323 0 4.719 1.069 4.719 1.482 0 .073-.025.17-.122.364l-.807 1.603c-.074.146-.171.244-.27.244-.146 0-1.662-1.07-3.422-1.07-1.125 0-2.298.438-2.298 1.895 0 1.847 2.86 2.187 5.012 3.765 1.246.923 2.102 2.211 2.102 4.057 0 3.085-2.2 5.126-5.28 5.126-2.495 0-5.11-1.07-5.11-1.458 0-.073.073-.243.121-.388l.563-1.604c.049-.145.171-.243.269-.243.147 0 1.956 1.07 4.059 1.07 1.369 0 2.2-.73 2.2-2.236 0-2.162-2.494-2.38-4.988-3.886-1.296-.777-2.127-1.75-2.127-3.765 0-3.498 2.543-4.956 5.379-4.956zm-25.085 4.64c4.157 0 4.89 3.692 4.89 6.631 0 .462-.098.608-.562.608h-6.577c0 1.36.391 3.036 2.69 3.036 1.76 0 2.762-.802 3.105-.802.122 0 .22.098.268.195l.612 1.457a.49.49 0 01.073.268c0 .631-2.445 1.433-4.377 1.433-3.227 0-5.476-1.822-5.476-6.292 0-3.862 2.078-6.534 5.354-6.534zm14.108 0c1.344 0 3.178.607 3.178 3.546v8.527c0 .267-.049.34-.342.34h-2.42c-.294 0-.343-.073-.343-.34V15.38c0-.923-.122-2.04-1.37-2.04-1.026 0-1.833.704-2.15.995v8.527c0 .267-.05.34-.343.34h-2.42c-.294 0-.343-.073-.343-.34v-7.336c0-3.425-.465-3.231-.465-3.79 0-.121.098-.218.27-.267l1.858-.607c.146-.049.269-.073.366-.073.318 0 .514.534.783 1.676.709-.632 1.809-1.676 3.74-1.676zm-47.211.024c0 2.43-1.565 3.207-2.494 3.668 1.149.316 3.056 1.215 3.056 4.008 0 3.97-2.787 4.683-5.862 4.712h-4.211c-.416 0-.514-.096-.514-.51V7.073c0-.437.098-.51.514-.51h3.814c2.372 0 5.697.34 5.697 4.251zm21.857-.024c1.344 0 3.178.607 3.178 3.546v8.527c0 .267-.049.34-.342.34h-2.42c-.294 0-.343-.073-.343-.34V15.38c0-.923-.122-2.04-1.369-2.04-1.027 0-1.834.704-2.151.995v8.527c0 .267-.05.34-.343.34h-2.42c-.294 0-.342-.073-.342-.34v-7.336c0-3.425-.465-3.231-.465-3.79 0-.121.098-.218.269-.267l1.858-.607c.147-.049.269-.073.367-.073.318 0 .513.534.782 1.676.71-.632 1.81-1.676 3.74-1.676zm47.382.413c.293 0 .342.073.342.34v11.32c0 .267-.049.34-.342.34h-2.42c-.294 0-.343-.073-.343-.34V13.46h-1.883c-.293 0-.342-.073-.342-.34v-1.58c0-.266.049-.34.342-.34h4.646zm38.192-.413c1.344 0 3.178.607 3.178 3.546v8.527c0 .267-.049.34-.342.34h-2.42c-.294 0-.343-.073-.343-.34V15.38c0-.923-.122-2.04-1.369-2.04-1.027 0-1.834.704-2.152.995v8.527c0 .267-.048.34-.342.34h-2.42c-.294 0-.343-.073-.343-.34v-7.336c0-3.425-.464-3.231-.464-3.79 0-.121.098-.218.269-.267l1.858-.607c.146-.049.269-.073.366-.073.319 0 .514.534.783 1.676.709-.632 1.81-1.676 3.74-1.676zM18.334 8L16 9.7l3.561 5.833-3.53 5.767 2.302 1.7L23 15.533 18.333 8zm-7 0L9 9.7l3.561 5.833-3.53 5.767 2.302 1.7L16 15.533 11.333 8zm74.512 9.756h-.212c-1.025.01-2.924.199-2.924 1.948 0 .947.685 1.651 1.614 1.651.904 0 1.54-.63 1.834-.922V17.76l-.312-.004zm-39.54-4.538c-1.834 0-2.201 1.36-2.201 4.057 0 2.745.465 3.91 2.054 3.91 1.1 0 1.516-.534 1.809-.85v-6.631c-.22-.122-.636-.486-1.663-.486zm24.962 2.77h-.929v4.663h.88c1.687 0 3.105-.291 3.105-2.356 0-2.04-1.418-2.308-3.056-2.308zm92.588-2.94c-1.907 0-2.005 2.04-2.078 2.72h3.838c0-.995-.073-2.72-1.76-2.72zm-105.008 0c-1.907 0-2.005 2.04-2.078 2.72h3.838c0-.995-.073-2.72-1.76-2.72zm51.147 0c-1.907 0-2.005 2.04-2.078 2.72h3.838c0-.995-.073-2.72-1.76-2.72zM71.366 9.113H70.34v4.324h.758c1.443 0 2.665-.365 2.665-2.284 0-1.53-1.051-2.04-2.396-2.04zm73.713-3.498c1.1 0 2.005.874 2.005 1.992a2.018 2.018 0 01-4.034 0c0-1.118.905-1.992 2.03-1.992z"></path></svg>
