<?xml version="1.0" encoding="UTF-8"?>
<svg clip-rule="evenodd" fill-rule="evenodd" stroke-linejoin="round" stroke-miterlimit="2" version="1.1" viewBox="0 0 500 500" xml:space="preserve" xmlns="http://www.w3.org/2000/svg" xmlns:cc="http://creativecommons.org/ns#" xmlns:dc="http://purl.org/dc/elements/1.1/" xmlns:rdf="http://www.w3.org/1999/02/22-rdf-syntax-ns#">
    <metadata>
        <rdf:RDF>
            <cc:Work rdf:about="">
            <dc:format>image/svg+xml</dc:format>
            <dc:type rdf:resource="http://purl.org/dc/dcmitype/StillImage"/>
            <dc:title/>
            </cc:Work>
        </rdf:RDF>
    </metadata>
    <path d="m383.25 137.79c0 31.169-9.351 57.078-28.052 77.727-18.701 20.65-48.507 34.481-89.416 41.494l129.16 155.46c10.52 12.857 22.11 22.11 34.773 27.759 12.662 5.65 27.76 9.838 45.292 12.565v22.208h-112.79l-143.18-183.51c-5.065-6.624-9.838-11.884-14.318-15.78-4.481-3.896-9.156-6.915-14.026-9.058s-10.52-3.507-16.948-4.091c-6.429-0.584-14.124-0.877-23.085-0.877v121.56c0 14.415 0.877 26.201 2.63 35.357s5.455 16.266 11.104 21.331 13.831 8.474 24.546 10.227c10.714 1.754 24.837 2.63 42.37 2.63v22.208h-206.3v-22.208c13.636-0.389 24.643-1.558 33.019-3.506 8.377-1.948 14.903-5.26 19.578-9.935 4.676-4.676 7.793-11.299 9.351-19.87 1.558-8.572 2.338-19.676 2.338-33.312v-272.34c0-13.636-0.682-24.643-2.046-33.019-1.363-8.377-4.091-15-8.182-19.87-4.09-4.871-10.032-8.182-17.824-9.936-7.792-1.753-17.922-3.019-30.39-3.798v-22.208h183.51c53.766 0 95.357 9.935 124.77 29.805 29.416 19.87 44.124 47.533 44.124 82.987zm-232.6 94.676h41.494c38.961 0 73.597-7.111 92.493-21.332 18.896-14.22 28.344-37.694 28.344-70.422 0-31.558-7.5-54.156-22.5-67.792s-44.181-20.454-76.129-20.454h-53.767c-6.623 0-9.935 3.311-9.935 9.935v170.06z" fill="#000000" fill-rule="nonzero"/>
    <path d="m160.18 54.154c-65.501 0.011-65.186-1.191-130.84-5.26v-23.993h185.07c49.99 0 109.66 7.086 145.3 46.168 35.364 38.777 33.569 108.19-3.26 145.78-24.255 24.757-57.466 36.237-90.177 41.494-32.984 5.3004-57.604 4.738-115.63 4.676v-31.365h41.368c33.676 0 78.293-3.721 100.03-33.732 24.272-33.506 26.855-94.098-6.612-123.31-19.329-16.873-46.258-20.454-71.022-20.455z" fill="#2d9cca" fill-rule="nonzero"/>
</svg>
